<svg xmlns="http://www.w3.org/2000/svg"><symbol id="angle-left" viewBox="0 0 80.71 125"><path fill="#435f59" d="M2.749 55.861L55.857 2.75a9.333 9.333 0 0 1 13.238 0l8.825 8.825a9.333 9.333 0 0 1 0 13.238L40.315 62.5l37.644 37.644a9.333 9.333 0 0 1 0 13.238l-8.821 8.868a9.333 9.333 0 0 1-13.238 0L2.788 69.139a9.346 9.346 0 0 1-.039-13.277z"/></symbol><symbol id="angle-right" viewBox="0 0 80.71 125"><path fill="#435f59" d="M77.964 55.861L24.856 2.75a9.333 9.333 0 0 0-13.238 0l-8.825 8.825a9.333 9.333 0 0 0 0 13.238L40.398 62.5 2.753 100.144a9.333 9.333 0 0 0 0 13.238l8.825 8.864a9.333 9.333 0 0 0 13.238 0l53.108-53.108a9.346 9.346 0 0 0 .039-13.277z"/></symbol><symbol id="facebook" viewBox="0 0 250 250"><path fill="#fff" d="M237.9 49.7a38.9 38.9 0 0 0-37.6-37.6H49.7a38.9 38.9 0 0 0-37.6 37.6v150.6a39 39 0 0 0 37.6 37.6H125v-85.3H97.4V115H125v-14.7c0-25.3 19-48.1 42.4-48.1h30.4v37.7h-30.4c-3.4 0-7.3 4-7.3 10.1v15h37.7v37.6h-37.7v85.3h40.2a39 39 0 0 0 37.6-37.6z"/></symbol><symbol id="instagram" viewBox="0 0 250 250"><path fill="#fff" d="M144.9 110.2a24.1 24.1 0 0 0-33.5-6.3 22.6 22.6 0 0 0-6.4 6.3 27 27 0 0 0-4.7 14.8 24.6 24.6 0 0 0 49.2 1.2V125a26.9 26.9 0 0 0-4.6-14.8z"/><path fill="#fff" d="M160.3 110.4a35 35 0 0 1 2.9 14.6 38.3 38.3 0 1 1-76.6 1.6V125a36.6 36.6 0 0 1 2.9-14.6H67.9v58.5A14.6 14.6 0 0 0 82 183.2h85.8a14.5 14.5 0 0 0 14.1-14.3v-58.5zM175.5 70h-20.7v24.2h23.5V69.8z"/><path fill="#fff" d="M180.8 10.3H69a57.1 57.1 0 0 0-56.3 57.5v114.6A57 57 0 0 0 69 239.7h112a57.1 57.1 0 0 0 56.3-57.5V67.8c-.2-31.6-25.5-57.5-56.5-57.5zm13.6 100v58.6a26.5 26.5 0 0 1-25.8 27.1H82a26.3 26.3 0 0 1-26.5-26.4V81.1A26.4 26.4 0 0 1 81.2 54h86.6a26.5 26.5 0 0 1 26.6 26.4v29.9z"/></symbol><symbol id="twitter" viewBox="0 0 250 250"><path fill="#fff" d="M216.8 10.3H33.2a23 23 0 0 0-22.9 22.9v183.6a23 23 0 0 0 22.9 22.9h183.6a23 23 0 0 0 22.9-22.9V33.2a23 23 0 0 0-22.9-22.9zM190.4 94c-1.2 52.8-34.4 89.5-84.9 91.8-20.6 1.1-35.6-5.8-49.3-13.8 14.9 2.3 34.4-3.4 44.7-12.6a31.1 31.1 0 0 1-28.7-21.8 45 45 0 0 0 12.7 0c-13.8-4.6-23-12.6-24.1-31a22.4 22.4 0 0 0 12.6 3.5c-10.3-5.7-17.2-27.5-9.2-41.3 14.9 16.1 33.3 29.8 63.1 32.1-8-32.1 35.6-49.3 52.7-27.5 8.1-1.2 13.8-4.6 19.5-6.9a31.6 31.6 0 0 1-12.6 17.2 63.3 63.3 0 0 0 16.1-4.6c-1.2 5.8-6.9 10.3-12.6 14.9z"/></symbol></svg>