<svg xmlns="http://www.w3.org/2000/svg" width="336" height="336" viewBox="0 0 250 250"><path fill="#fff" d="M144.9 110.2a24.1 24.1 0 0 0-33.5-6.3 22.6 22.6 0 0 0-6.4 6.3 27 27 0 0 0-4.7 14.8 24.6 24.6 0 0 0 49.2 1.2V125a26.9 26.9 0 0 0-4.6-14.8z"/><path fill="#fff" d="M160.3 110.4a35 35 0 0 1 2.9 14.6 38.3 38.3 0 1 1-76.6 1.6V125a36.6 36.6 0 0 1 2.9-14.6H67.9v58.5A14.6 14.6 0 0 0 82 183.2h85.8a14.5 14.5 0 0 0 14.1-14.3v-58.5zM175.5 70h-20.7v24.2h23.5V69.8z"/><path fill="#fff" d="M180.8 10.3H69a57.1 57.1 0 0 0-56.3 57.5v114.6A57 57 0 0 0 69 239.7h112a57.1 57.1 0 0 0 56.3-57.5V67.8c-.2-31.6-25.5-57.5-56.5-57.5zm13.6 100v58.6a26.5 26.5 0 0 1-25.8 27.1H82a26.3 26.3 0 0 1-26.5-26.4V81.1A26.4 26.4 0 0 1 81.2 54h86.6a26.5 26.5 0 0 1 26.6 26.4v29.9z"/></svg>