<svg>
  <symbol id="logo" viewBox="0 0 382.6 44.2">
    <defs>
      <linearGradient id="a" x2="382.65" y1="22.08" y2="22.08" gradientUnits="userSpaceOnUse">
        <stop offset="0" stop-color="#fff"/>
        <stop offset=".76"/>
      </linearGradient>
    </defs>
    <path fill="url(#a)" d="M0 .5h11.6a8.4 8.4 0 0 1 6 2.1 7.4 7.4 0 0 1 2.3 5.6 7.7 7.7 0 0 1-1.4 4.5 10.2 10.2 0 0 1-4.1 3 9.8 9.8 0 0 1 5.8 2.6 8 8 0 0 1 1.9 5.5 8.5 8.5 0 0 1-3.2 6.9c-2 1.7-4.9 2.5-8.4 2.5H0zm7.6 6.4v6.2h.9a4 4 0 0 0 2.7-.9 3.3 3.3 0 0 0 1-2.4 2.9 2.9 0 0 0-.8-2.2A3.3 3.3 0 0 0 9 6.9zm0 12.3v7.6h2.5a4 4 0 0 0 3-1.1 3.4 3.4 0 0 0 1.2-2.7 3.5 3.5 0 0 0-1.2-2.8 4.4 4.4 0 0 0-3-1zm35.2 12.1a16.5 16.5 0 0 1-8 2.5 10.1 10.1 0 0 1-7.8-3.3 12 12 0 0 1-3-8.4 12.6 12.6 0 0 1 2.8-8.3 9.3 9.3 0 0 1 7.6-3.4 8.8 8.8 0 0 1 6.8 2.9 11.7 11.7 0 0 1 2.5 7.9V23h-12a6.4 6.4 0 0 0 1.7 3.4 5.2 5.2 0 0 0 3.3 1.1 5.5 5.5 0 0 0 2.8-.7 18.3 18.3 0 0 0 3.3-2.4zm-5.6-12.2v-.8a4.5 4.5 0 0 0-.8-2.6 2.4 2.4 0 0 0-2-1.1 2.7 2.7 0 0 0-2.2 1.1 7.3 7.3 0 0 0-.9 3.4zm10.4-6.9a17.4 17.4 0 0 1 7.3-1.8 10.2 10.2 0 0 1 4.4.9 8 8 0 0 1 3.2 2.9 9.5 9.5 0 0 1 1.3 5v7.5a16.4 16.4 0 0 0 1.3 6.5h-7.5a10.5 10.5 0 0 1-.6-2.1 8.8 8.8 0 0 1-2.4 2 5.5 5.5 0 0 1-2.5.7 6.2 6.2 0 0 1-4.6-2.1 6.9 6.9 0 0 1-2.1-5.1c0-4.4 3.9-7.2 11.6-8.2a2.7 2.7 0 0 0-1.3-1.8 5.5 5.5 0 0 0-2.8-.6 8.8 8.8 0 0 0-5.3 2.1zm9.4 9.9c-3.2.3-4.7 1.5-4.7 3.6a2.6 2.6 0 0 0 .7 1.9 2.1 2.1 0 0 0 1.6.8 1.9 1.9 0 0 0 1.8-1A4.3 4.3 0 0 0 57 25zm18.1-8.2a7 7 0 0 1 1.7-2.7 3.8 3.8 0 0 1 2.3-.8 4.1 4.1 0 0 1 1.8.5v7a6.3 6.3 0 0 0-2.1-.5 3 3 0 0 0-2.3 1.1 4.4 4.4 0 0 0-1 3v11.7H68V10.9h6.4zm37.1 18.5a12.7 12.7 0 0 1-5.4 1.4 10.1 10.1 0 0 1-8.7-4.9A20.4 20.4 0 0 1 94.8 17a26.4 26.4 0 0 1 1.4-8.4 13.4 13.4 0 0 1 4.3-6.2 10.4 10.4 0 0 1 6.7-2.4 12.2 12.2 0 0 1 5 1.2v7.5a5.6 5.6 0 0 0-4-1.9 4.6 4.6 0 0 0-4.1 2.7c-1.1 1.8-1.6 4.4-1.6 7.7a13 13 0 0 0 1.6 7 4.5 4.5 0 0 0 4 2.6 7.1 7.1 0 0 0 4.1-1.7zm10.2-18.5a7 7 0 0 1 1.7-2.7 3.8 3.8 0 0 1 2.3-.8 4.1 4.1 0 0 1 1.8.5v7a6.3 6.3 0 0 0-2.1-.5 3 3 0 0 0-2.3 1.1 4.4 4.4 0 0 0-1 3v11.7h-7.5V10.9h6.4zm25.8 17.4a17.1 17.1 0 0 1-8 2.5 10.1 10.1 0 0 1-7.9-3.3 12 12 0 0 1-3-8.4 12.6 12.6 0 0 1 2.8-8.3 9.5 9.5 0 0 1 7.7-3.4 8.6 8.6 0 0 1 6.7 2.9 11.7 11.7 0 0 1 2.6 7.9V23H137a7.3 7.3 0 0 0 1.8 3.4 4.8 4.8 0 0 0 3.2 1.1 5.3 5.3 0 0 0 2.8-.7 18.3 18.3 0 0 0 3.4-2.4zm-5.7-12.2v-.8a3.8 3.8 0 0 0-.8-2.6 2.4 2.4 0 0 0-2-1.1 2.5 2.5 0 0 0-2.1 1.1 7.3 7.3 0 0 0-.9 3.4zm28.2 12.2a17.1 17.1 0 0 1-8 2.5 10.1 10.1 0 0 1-7.9-3.3 12 12 0 0 1-3-8.4 12.6 12.6 0 0 1 2.8-8.3 9.5 9.5 0 0 1 7.7-3.4 8.6 8.6 0 0 1 6.7 2.9 11.7 11.7 0 0 1 2.6 7.9V23h-12.1a7.3 7.3 0 0 0 1.8 3.4 4.8 4.8 0 0 0 3.2 1.1 5.3 5.3 0 0 0 2.8-.7 18.3 18.3 0 0 0 3.4-2.4zM165 19.1v-.8a3.8 3.8 0 0 0-.8-2.6 2.4 2.4 0 0 0-2-1.1 2.5 2.5 0 0 0-2.1 1.1 7.3 7.3 0 0 0-.9 3.4zM174.4.5h7.4v17.2l3.6-6.8h6.9l-4.2 6.3 5.2 16h-7.9l-2.5-8.5-1.1 1.5v7h-7.4zm32.4 23c2.5 2.3 4.9 3.5 7.2 3.5a4.4 4.4 0 0 0 2.9-1.1 3.7 3.7 0 0 0 1.2-2.7 3.1 3.1 0 0 0-.9-2.2 12.9 12.9 0 0 0-3.3-2.3 17 17 0 0 1-5.2-3.7 7.5 7.5 0 0 1-1.9-5.3 9.4 9.4 0 0 1 2.9-6.9 10.2 10.2 0 0 1 7.6-2.8 15.8 15.8 0 0 1 6.7 1.7v7.8c-2.1-1.9-4.1-2.9-5.9-2.9a3.6 3.6 0 0 0-2.5.8 2.5 2.5 0 0 0-1 2 3.2 3.2 0 0 0 .8 2.1 14.9 14.9 0 0 0 3.1 1.8 17.6 17.6 0 0 1 5.6 3.7 9 9 0 0 1 1.9 5.8 10.3 10.3 0 0 1-3.3 7.7 10.9 10.9 0 0 1-8 3.3 17.1 17.1 0 0 1-7.9-2.3zm23-11.3a16.6 16.6 0 0 1 7.2-1.8 9.9 9.9 0 0 1 4.4.9 6.9 6.9 0 0 1 3.2 2.9 8.7 8.7 0 0 1 1.3 5v7.5a16.4 16.4 0 0 0 1.3 6.5h-7.4a10.3 10.3 0 0 1-.7-2.1 8.5 8.5 0 0 1-2.3 2 5.9 5.9 0 0 1-2.5.7 6.4 6.4 0 0 1-4.7-2.1 6.9 6.9 0 0 1-2.1-5.1c0-4.4 3.9-7.2 11.6-8.2a2.7 2.7 0 0 0-1.3-1.8 5.1 5.1 0 0 0-2.7-.6 8.8 8.8 0 0 0-5.3 2.1zm9.3 9.9c-3.1.3-4.7 1.5-4.7 3.6a2.6 2.6 0 0 0 .7 1.9 2.3 2.3 0 0 0 1.7.8 1.9 1.9 0 0 0 1.7-1 4.3 4.3 0 0 0 .6-2.4zm18.2-8.9a7.6 7.6 0 0 1 2.3-2.1 5.1 5.1 0 0 1 2.8-.7 5.8 5.8 0 0 1 4.4 1.9 6.8 6.8 0 0 1 1.8 4.8v16.1h-7.5V18.7c0-1.3-.5-1.9-1.4-1.9a1.7 1.7 0 0 0-1.6 1 6 6 0 0 0-.6 2.9v12.5h-7.3V10.9h6.4zm28.2 19.2a9.8 9.8 0 0 1-4.8 1.4 8.9 8.9 0 0 1-6.9-3.4 13 13 0 0 1-2.8-8.3 12.5 12.5 0 0 1 2.9-8.3 8.9 8.9 0 0 1 7.2-3.4 13.2 13.2 0 0 1 4.4.9V18a5.6 5.6 0 0 0-2.8-1.1 3.6 3.6 0 0 0-2.9 1.5 5.6 5.6 0 0 0-1.1 3.5 5.2 5.2 0 0 0 1.2 3.6 3.3 3.3 0 0 0 2.7 1.5 4.6 4.6 0 0 0 2.9-1.2zm6.2-28.2h6.2v6.7h3.7v5.5h-3.4v9.1c0 1.4.6 2.1 1.7 2.1a3.2 3.2 0 0 0 1.7-.6v6a12.5 12.5 0 0 1-4.2.8 7 7 0 0 1-5.1-1.7 7 7 0 0 1-1.7-5.1V16.4h-2.7v-5.5h3.2zm12.6 6.7h7.4v13.8a4.4 4.4 0 0 0 .3 1.9 1.2 1.2 0 0 0 1.1.7 1.9 1.9 0 0 0 1.4-.8 3.2 3.2 0 0 0 .5-1.8V10.9h7.6v22.3h-6.5l-.7-2.2a9 9 0 0 1-2.3 2.1 6.4 6.4 0 0 1-2.7.7 5.6 5.6 0 0 1-4.4-2.2 8.3 8.3 0 0 1-1.7-5.4zm23.1 1.3a16.6 16.6 0 0 1 7.2-1.8 9.9 9.9 0 0 1 4.4.9 7.4 7.4 0 0 1 3.2 2.9 8.7 8.7 0 0 1 1.3 5v7.5a16.4 16.4 0 0 0 1.3 6.5h-7.4a10.3 10.3 0 0 1-.7-2.1 8.5 8.5 0 0 1-2.3 2 5.9 5.9 0 0 1-2.6.7 6.3 6.3 0 0 1-4.6-2.1 6.9 6.9 0 0 1-2.1-5.1c0-4.4 3.9-7.2 11.6-8.2a2.7 2.7 0 0 0-1.3-1.8 5.1 5.1 0 0 0-2.7-.6 8.5 8.5 0 0 0-5.3 2.1zm9.3 9.9c-3.1.3-4.7 1.5-4.7 3.6a2.6 2.6 0 0 0 .7 1.9 2.3 2.3 0 0 0 1.7.8 1.9 1.9 0 0 0 1.7-1 4.3 4.3 0 0 0 .6-2.4zm18.2-8.2a6.9 6.9 0 0 1 1.6-2.7 4 4 0 0 1 2.3-.8 4.9 4.9 0 0 1 1.9.5v7a6.3 6.3 0 0 0-2.1-.5 3 3 0 0 0-2.4 1.1 4.9 4.9 0 0 0-.9 3v11.7h-7.6V10.9h6.4zm7.9-3h7.9l2.2 14.9 2.1-14.9h7.6l-5.9 22.3a37.4 37.4 0 0 1-2.5 7.1 7.6 7.6 0 0 1-2.7 2.9 7.5 7.5 0 0 1-3.6 1 9.4 9.4 0 0 1-3.9-1v-5.7a3.5 3.5 0 0 0 2 .7 2.2 2.2 0 0 0 2-1.1 13.1 13.1 0 0 0 1.1-3.5z"/>
    <path fill="#edd5c8" d="M0 .5h11.6a8.4 8.4 0 0 1 6 2.1 7.4 7.4 0 0 1 2.3 5.6 7.7 7.7 0 0 1-1.4 4.5 10.2 10.2 0 0 1-4.1 3 9.8 9.8 0 0 1 5.8 2.6 8 8 0 0 1 1.9 5.5 8.5 8.5 0 0 1-3.2 6.9c-2 1.7-4.9 2.5-8.4 2.5H0zm7.6 6.4v6.2h.9a4 4 0 0 0 2.7-.9 3.3 3.3 0 0 0 1-2.4 2.9 2.9 0 0 0-.8-2.2A3.3 3.3 0 0 0 9 6.9zm0 12.3v7.6h2.5a4 4 0 0 0 3-1.1 3.4 3.4 0 0 0 1.2-2.7 3.5 3.5 0 0 0-1.2-2.8 4.4 4.4 0 0 0-3-1zm35.2 12.1a16.5 16.5 0 0 1-8 2.5 10.1 10.1 0 0 1-7.8-3.3 12 12 0 0 1-3-8.4 12.6 12.6 0 0 1 2.8-8.3 9.3 9.3 0 0 1 7.6-3.4 8.8 8.8 0 0 1 6.8 2.9 11.7 11.7 0 0 1 2.5 7.9V23h-12a6.4 6.4 0 0 0 1.7 3.4 5.2 5.2 0 0 0 3.3 1.1 5.5 5.5 0 0 0 2.8-.7 18.3 18.3 0 0 0 3.3-2.4zm-5.6-12.2v-.8a4.5 4.5 0 0 0-.8-2.6 2.4 2.4 0 0 0-2-1.1 2.7 2.7 0 0 0-2.2 1.1 7.3 7.3 0 0 0-.9 3.4zm10.4-6.9a17.4 17.4 0 0 1 7.3-1.8 10.2 10.2 0 0 1 4.4.9 8 8 0 0 1 3.2 2.9 9.5 9.5 0 0 1 1.3 5v7.5a16.4 16.4 0 0 0 1.3 6.5h-7.5a10.5 10.5 0 0 1-.6-2.1 8.8 8.8 0 0 1-2.4 2 5.5 5.5 0 0 1-2.5.7 6.2 6.2 0 0 1-4.6-2.1 6.9 6.9 0 0 1-2.1-5.1c0-4.4 3.9-7.2 11.6-8.2a2.7 2.7 0 0 0-1.3-1.8 5.5 5.5 0 0 0-2.8-.6 8.8 8.8 0 0 0-5.3 2.1zm9.4 9.9c-3.2.3-4.7 1.5-4.7 3.6a2.6 2.6 0 0 0 .7 1.9 2.1 2.1 0 0 0 1.6.8 1.9 1.9 0 0 0 1.8-1A4.3 4.3 0 0 0 57 25zm18.1-8.2a7 7 0 0 1 1.7-2.7 3.8 3.8 0 0 1 2.3-.8 4.1 4.1 0 0 1 1.8.5v7a6.3 6.3 0 0 0-2.1-.5 3 3 0 0 0-2.3 1.1 4.4 4.4 0 0 0-1 3v11.7H68V10.9h6.4zm37.1 18.5a12.7 12.7 0 0 1-5.4 1.4 10.1 10.1 0 0 1-8.7-4.9A20.4 20.4 0 0 1 94.8 17a26.4 26.4 0 0 1 1.4-8.4 13.4 13.4 0 0 1 4.3-6.2 10.4 10.4 0 0 1 6.7-2.4 12.2 12.2 0 0 1 5 1.2v7.5a5.6 5.6 0 0 0-4-1.9 4.6 4.6 0 0 0-4.1 2.7c-1.1 1.8-1.6 4.4-1.6 7.7a13 13 0 0 0 1.6 7 4.5 4.5 0 0 0 4 2.6 7.1 7.1 0 0 0 4.1-1.7zm10.2-18.5a7 7 0 0 1 1.7-2.7 3.8 3.8 0 0 1 2.3-.8 4.1 4.1 0 0 1 1.8.5v7a6.3 6.3 0 0 0-2.1-.5 3 3 0 0 0-2.3 1.1 4.4 4.4 0 0 0-1 3v11.7h-7.5V10.9h6.4zm25.8 17.4a17.1 17.1 0 0 1-8 2.5 10.1 10.1 0 0 1-7.9-3.3 12 12 0 0 1-3-8.4 12.6 12.6 0 0 1 2.8-8.3 9.5 9.5 0 0 1 7.7-3.4 8.6 8.6 0 0 1 6.7 2.9 11.7 11.7 0 0 1 2.6 7.9V23H137a7.3 7.3 0 0 0 1.8 3.4 4.8 4.8 0 0 0 3.2 1.1 5.3 5.3 0 0 0 2.8-.7 18.3 18.3 0 0 0 3.4-2.4zm-5.7-12.2v-.8a3.8 3.8 0 0 0-.8-2.6 2.4 2.4 0 0 0-2-1.1 2.5 2.5 0 0 0-2.1 1.1 7.3 7.3 0 0 0-.9 3.4zm28.2 12.2a17.1 17.1 0 0 1-8 2.5 10.1 10.1 0 0 1-7.9-3.3 12 12 0 0 1-3-8.4 12.6 12.6 0 0 1 2.8-8.3 9.5 9.5 0 0 1 7.7-3.4 8.6 8.6 0 0 1 6.7 2.9 11.7 11.7 0 0 1 2.6 7.9V23h-12.1a7.3 7.3 0 0 0 1.8 3.4 4.8 4.8 0 0 0 3.2 1.1 5.3 5.3 0 0 0 2.8-.7 18.3 18.3 0 0 0 3.4-2.4zM165 19.1v-.8a3.8 3.8 0 0 0-.8-2.6 2.4 2.4 0 0 0-2-1.1 2.5 2.5 0 0 0-2.1 1.1 7.3 7.3 0 0 0-.9 3.4zM174.4.5h7.4v17.2l3.6-6.8h6.9l-4.2 6.3 5.2 16h-7.9l-2.5-8.5-1.1 1.5v7h-7.4zm32.4 23c2.5 2.3 4.9 3.5 7.2 3.5a4.4 4.4 0 0 0 2.9-1.1 3.7 3.7 0 0 0 1.2-2.7 3.1 3.1 0 0 0-.9-2.2 12.9 12.9 0 0 0-3.3-2.3 17 17 0 0 1-5.2-3.7 7.5 7.5 0 0 1-1.9-5.3 9.4 9.4 0 0 1 2.9-6.9 10.2 10.2 0 0 1 7.6-2.8 15.8 15.8 0 0 1 6.7 1.7v7.8c-2.1-1.9-4.1-2.9-5.9-2.9a3.6 3.6 0 0 0-2.5.8 2.5 2.5 0 0 0-1 2 3.2 3.2 0 0 0 .8 2.1 14.9 14.9 0 0 0 3.1 1.8 17.6 17.6 0 0 1 5.6 3.7 9 9 0 0 1 1.9 5.8 10.3 10.3 0 0 1-3.3 7.7 10.9 10.9 0 0 1-8 3.3 17.1 17.1 0 0 1-7.9-2.3zm23-11.3a16.6 16.6 0 0 1 7.2-1.8 9.9 9.9 0 0 1 4.4.9 6.9 6.9 0 0 1 3.2 2.9 8.7 8.7 0 0 1 1.3 5v7.5a16.4 16.4 0 0 0 1.3 6.5h-7.4a10.3 10.3 0 0 1-.7-2.1 8.5 8.5 0 0 1-2.3 2 5.9 5.9 0 0 1-2.5.7 6.4 6.4 0 0 1-4.7-2.1 6.9 6.9 0 0 1-2.1-5.1c0-4.4 3.9-7.2 11.6-8.2a2.7 2.7 0 0 0-1.3-1.8 5.1 5.1 0 0 0-2.7-.6 8.8 8.8 0 0 0-5.3 2.1zm9.3 9.9c-3.1.3-4.7 1.5-4.7 3.6a2.6 2.6 0 0 0 .7 1.9 2.3 2.3 0 0 0 1.7.8 1.9 1.9 0 0 0 1.7-1 4.3 4.3 0 0 0 .6-2.4zm18.2-8.9a7.6 7.6 0 0 1 2.3-2.1 5.1 5.1 0 0 1 2.8-.7 5.8 5.8 0 0 1 4.4 1.9 6.8 6.8 0 0 1 1.8 4.8v16.1h-7.5V18.7c0-1.3-.5-1.9-1.4-1.9a1.7 1.7 0 0 0-1.6 1 6 6 0 0 0-.6 2.9v12.5h-7.3V10.9h6.4zm28.2 19.2a9.8 9.8 0 0 1-4.8 1.4 8.9 8.9 0 0 1-6.9-3.4 13 13 0 0 1-2.8-8.3 12.5 12.5 0 0 1 2.9-8.3 8.9 8.9 0 0 1 7.2-3.4 13.2 13.2 0 0 1 4.4.9V18a5.6 5.6 0 0 0-2.8-1.1 3.6 3.6 0 0 0-2.9 1.5 5.6 5.6 0 0 0-1.1 3.5 5.2 5.2 0 0 0 1.2 3.6 3.3 3.3 0 0 0 2.7 1.5 4.6 4.6 0 0 0 2.9-1.2zm6.2-28.2h6.2v6.7h3.7v5.5h-3.4v9.1c0 1.4.6 2.1 1.7 2.1a3.2 3.2 0 0 0 1.7-.6v6a12.5 12.5 0 0 1-4.2.8 7 7 0 0 1-5.1-1.7 7 7 0 0 1-1.7-5.1V16.4h-2.7v-5.5h3.2zm12.6 6.7h7.4v13.8a4.4 4.4 0 0 0 .3 1.9 1.2 1.2 0 0 0 1.1.7 1.9 1.9 0 0 0 1.4-.8 3.2 3.2 0 0 0 .5-1.8V10.9h7.6v22.3h-6.5l-.7-2.2a9 9 0 0 1-2.3 2.1 6.4 6.4 0 0 1-2.7.7 5.6 5.6 0 0 1-4.4-2.2 8.3 8.3 0 0 1-1.7-5.4zm23.1 1.3a16.6 16.6 0 0 1 7.2-1.8 9.9 9.9 0 0 1 4.4.9 7.4 7.4 0 0 1 3.2 2.9 8.7 8.7 0 0 1 1.3 5v7.5a16.4 16.4 0 0 0 1.3 6.5h-7.4a10.3 10.3 0 0 1-.7-2.1 8.5 8.5 0 0 1-2.3 2 5.9 5.9 0 0 1-2.6.7 6.3 6.3 0 0 1-4.6-2.1 6.9 6.9 0 0 1-2.1-5.1c0-4.4 3.9-7.2 11.6-8.2a2.7 2.7 0 0 0-1.3-1.8 5.1 5.1 0 0 0-2.7-.6 8.5 8.5 0 0 0-5.3 2.1zm9.3 9.9c-3.1.3-4.7 1.5-4.7 3.6a2.6 2.6 0 0 0 .7 1.9 2.3 2.3 0 0 0 1.7.8 1.9 1.9 0 0 0 1.7-1 4.3 4.3 0 0 0 .6-2.4zm18.2-8.2a6.9 6.9 0 0 1 1.6-2.7 4 4 0 0 1 2.3-.8 4.9 4.9 0 0 1 1.9.5v7a6.3 6.3 0 0 0-2.1-.5 3 3 0 0 0-2.4 1.1 4.9 4.9 0 0 0-.9 3v11.7h-7.6V10.9h6.4zm7.9-3h7.9l2.2 14.9 2.1-14.9h7.6l-5.9 22.3a37.4 37.4 0 0 1-2.5 7.1 7.6 7.6 0 0 1-2.7 2.9 7.5 7.5 0 0 1-3.6 1 9.4 9.4 0 0 1-3.9-1v-5.7a3.5 3.5 0 0 0 2 .7 2.2 2.2 0 0 0 2-1.1 13.1 13.1 0 0 0 1.1-3.5z"/>
  </symbol>
</svg>
