<svg height="17.5" viewBox="0 0 152.6 17.5" width="152.6" xmlns="http://www.w3.org/2000/svg"><g fill="#cc6c54"><path d="m0 .2h4.6a3.6 3.6 0 0 1 2.4.8 2.9 2.9 0 0 1 .9 2.2 2.8 2.8 0 0 1 -.6 1.8 3.4 3.4 0 0 1 -1.6 1.2 4.5 4.5 0 0 1 2.3 1 3.2 3.2 0 0 1 .7 2.2 3.2 3.2 0 0 1 -1.2 2.7 4.9 4.9 0 0 1 -3.3 1.1h-4.2zm3 2.5v2.5h.3a1.2 1.2 0 0 0 1.1-.4 1 1 0 0 0 .4-.9 1.2 1.2 0 0 0 -.3-.9 1.2 1.2 0 0 0 -.9-.3zm0 4.9v3h1a1.6 1.6 0 0 0 1.2-.4 1.6 1.6 0 0 0 .5-1.1 1.4 1.4 0 0 0 -.5-1.1 1.6 1.6 0 0 0 -1.2-.4z"/><path d="m16.9 12.4a6.6 6.6 0 0 1 -3.1 1 4.2 4.2 0 0 1 -3.1-1.3 4.8 4.8 0 0 1 -1.2-3.3 5.2 5.2 0 0 1 1.1-3.3 3.9 3.9 0 0 1 3-1.4 3.4 3.4 0 0 1 2.7 1.2 4.3 4.3 0 0 1 1 3.1v.7h-4.8a3.2 3.2 0 0 0 .7 1.3 2.1 2.1 0 0 0 1.3.5 2 2 0 0 0 1.1-.3l1.3-.9zm-2.2-4.9v-.3a1.7 1.7 0 0 0 -.3-1 .9.9 0 0 0 -.8-.4.8.8 0 0 0 -.8.4 2.5 2.5 0 0 0 -.4 1.3z"/><path d="m18.9 4.8a6.1 6.1 0 0 1 2.8-.7 3.4 3.4 0 0 1 1.8.4 2.5 2.5 0 0 1 1.2 1.1 3.1 3.1 0 0 1 .5 2v3a6.5 6.5 0 0 0 .6 2.6h-3l-.3-.9a2.3 2.3 0 0 1 -.9.8 1.7 1.7 0 0 1 -1 .3 2.3 2.3 0 0 1 -1.8-.9 2.4 2.4 0 0 1 -.8-2c0-1.7 1.5-2.8 4.5-3.2a.8.8 0 0 0 -.5-.7 1.6 1.6 0 0 0 -1.1-.3 3.2 3.2 0 0 0 -2 .9zm3.6 4c-1.2.1-1.8.5-1.8 1.4a.9.9 0 0 0 .3.7.9.9 0 0 0 .6.3.8.8 0 0 0 .7-.3 1.6 1.6 0 0 0 .2-1z"/><path d="m29.7 5.5a2 2 0 0 1 .7-1 1.2 1.2 0 0 1 .9-.4l.7.2v2.8a1.3 1.3 0 0 0 -.8-.2 1 1 0 0 0 -.9.4 1.6 1.6 0 0 0 -.4 1.2v4.7h-3v-8.9h2.5z"/><path d="m44.4 12.8a4.1 4.1 0 0 1 -5.6-1.3 9 9 0 0 1 -1.3-4.8 9.6 9.6 0 0 1 .6-3.3 5.3 5.3 0 0 1 1.7-2.5 4.1 4.1 0 0 1 2.6-.9 4.9 4.9 0 0 1 2 .5v2.9a2.6 2.6 0 0 0 -1.6-.7 1.8 1.8 0 0 0 -1.6 1.1 6.1 6.1 0 0 0 -.6 3 5.5 5.5 0 0 0 .6 2.8 1.7 1.7 0 0 0 1.6 1 2.5 2.5 0 0 0 1.6-.7z"/><path d="m48.8 5.5a2 2 0 0 1 .7-1 1.2 1.2 0 0 1 .9-.4l.7.2v2.8a1.3 1.3 0 0 0 -.8-.2 1 1 0 0 0 -.9.4 1.6 1.6 0 0 0 -.4 1.2v4.7h-3v-8.9h2.5z"/><path d="m59.4 12.4a7 7 0 0 1 -3.2 1 4.4 4.4 0 0 1 -3.1-1.3 4.8 4.8 0 0 1 -1.2-3.3 4.8 4.8 0 0 1 1.2-3.3 3.6 3.6 0 0 1 3-1.4 3.4 3.4 0 0 1 2.7 1.2 4.8 4.8 0 0 1 1 3.1v.7h-4.8a2.3 2.3 0 0 0 .7 1.3 1.7 1.7 0 0 0 1.3.5 2.3 2.3 0 0 0 1.1-.3l1.3-.9zm-2.2-4.9v-.3a1.7 1.7 0 0 0 -.3-1 1 1 0 0 0 -.8-.4 1 1 0 0 0 -.9.4 2.5 2.5 0 0 0 -.3 1.3z"/><path d="m68.3 12.4a7 7 0 0 1 -3.2 1 4.4 4.4 0 0 1 -3.1-1.3 4.8 4.8 0 0 1 -1.2-3.3 4.8 4.8 0 0 1 1.2-3.3 3.6 3.6 0 0 1 3-1.4 3.4 3.4 0 0 1 2.7 1.2 4.8 4.8 0 0 1 1 3.1v.7h-4.8a2.3 2.3 0 0 0 .7 1.3 1.9 1.9 0 0 0 1.3.5 2.3 2.3 0 0 0 1.1-.3l1.3-.9zm-2.2-4.9v-.3a1.7 1.7 0 0 0 -.3-1 .9.9 0 0 0 -.8-.4 1 1 0 0 0 -.9.4 2.5 2.5 0 0 0 -.3 1.3z"/><path d="m69.8.2h2.9v6.8l1.4-2.7h2.8l-1.7 2.5 2.1 6.4h-3.2l-1-3.4-.4.6v2.8h-2.9z"/><path d="m82.6 9.3a4.6 4.6 0 0 0 2.8 1.4 1.7 1.7 0 0 0 1.2-.5 1.2 1.2 0 0 0 .1-1.9 2.9 2.9 0 0 0 -1.3-.9 4.6 4.6 0 0 1 -2-1.5 2.9 2.9 0 0 1 -.8-2.1 3.6 3.6 0 0 1 1.2-2.7 4.1 4.1 0 0 1 3-1.1 5.4 5.4 0 0 1 2.6.7v3.1a3.5 3.5 0 0 0 -2.3-1.2 1.7 1.7 0 0 0 -1 .3 1 1 0 0 0 -.4.8 1.1 1.1 0 0 0 .3.8 3.1 3.1 0 0 0 1.2.8 6.4 6.4 0 0 1 2.2 1.4 3.6 3.6 0 0 1 .8 2.3 4.2 4.2 0 0 1 -1.3 3.1 4.6 4.6 0 0 1 -3.2 1.3 6.7 6.7 0 0 1 -3.1-.9z"/><path d="m91.7 4.8a6.5 6.5 0 0 1 2.9-.7 3.3 3.3 0 0 1 1.7.4 3.3 3.3 0 0 1 1.3 1.1 3.9 3.9 0 0 1 .5 2v3a8.5 8.5 0 0 0 .5 2.6h-2.9l-.3-.9a3.2 3.2 0 0 1 -.9.8 1.9 1.9 0 0 1 -1 .3 2.6 2.6 0 0 1 -1.9-.9 2.8 2.8 0 0 1 -.8-2c0-1.7 1.6-2.8 4.6-3.2-.1-.3-.2-.6-.5-.7a1.8 1.8 0 0 0 -1.1-.3 3.2 3.2 0 0 0 -2.1.9zm3.7 4c-1.2.1-1.9.5-1.9 1.4a1 1 0 0 0 1.7.7 3 3 0 0 0 .2-1z"/><path d="m102.6 5.2.9-.8a2 2 0 0 1 1.1-.3 2.5 2.5 0 0 1 1.8.8 2.9 2.9 0 0 1 .7 1.9v6.4h-3v-5.8c0-.5-.2-.8-.5-.8s-.5.2-.7.5a2.7 2.7 0 0 0 -.2 1.1v5h-2.9v-8.9h2.5z"/><path d="m113.8 12.8a3.8 3.8 0 0 1 -1.9.6 3.3 3.3 0 0 1 -2.7-1.4 4.8 4.8 0 0 1 -1.2-3.3 4.7 4.7 0 0 1 1.2-3.2 3.5 3.5 0 0 1 2.8-1.4 4.5 4.5 0 0 1 1.8.4v2.6a3.7 3.7 0 0 0 -1.1-.4 1.4 1.4 0 0 0 -1.2.6 2 2 0 0 0 -.4 1.4 2.3 2.3 0 0 0 .4 1.4 1.4 1.4 0 0 0 1.1.6 2.1 2.1 0 0 0 1.2-.5z"/><path d="m116.2 1.7h2.5v2.6h1.4v2.2h-1.3v3.6c0 .6.2.8.7.8l.6-.2v2.4a4.5 4.5 0 0 1 -1.6.3 3.1 3.1 0 0 1 -2.1-.7 2.8 2.8 0 0 1 -.6-2v-4.2h-1.1v-2.2h1.3z"/><path d="m121.6 4.3h2.9v5.5a5.6 5.6 0 0 0 .1.7.6.6 0 0 0 1 0 .8.8 0 0 0 .2-.7v-5.5h3v8.9h-2.5l-.3-.9-.9.8a2.3 2.3 0 0 1 -1.1.3 2 2 0 0 1 -1.7-.9 3.1 3.1 0 0 1 -.7-2.1z"/><path d="m130.7 4.8a6.5 6.5 0 0 1 2.9-.7 3.1 3.1 0 0 1 1.7.4 2.8 2.8 0 0 1 1.3 1.1 3.9 3.9 0 0 1 .5 2v3a8.5 8.5 0 0 0 .5 2.6h-2.9l-.3-.9a3.2 3.2 0 0 1 -.9.8 1.9 1.9 0 0 1 -1 .3 2.6 2.6 0 0 1 -1.9-.9 2.8 2.8 0 0 1 -.8-2c0-1.7 1.6-2.8 4.6-3.2-.1-.3-.2-.6-.5-.7a1.8 1.8 0 0 0 -1.1-.3 3.2 3.2 0 0 0 -2.1.9zm3.7 4c-1.2.1-1.8.5-1.8 1.4a.8.8 0 0 0 .2.7 1 1 0 0 0 1.4 0 3 3 0 0 0 .2-1z"/><path d="m141.6 5.5a2 2 0 0 1 .7-1 1 1 0 0 1 .9-.4l.7.2v2.8a1.3 1.3 0 0 0 -.8-.2 1.3 1.3 0 0 0 -1 .4 2.1 2.1 0 0 0 -.3 1.2v4.7h-3v-8.9h2.5z"/><path d="m144.7 4.3h3.2l.9 5.9.8-5.9h3l-2.4 8.9a18.5 18.5 0 0 1 -.9 2.8 3.8 3.8 0 0 1 -1.1 1.1 3.3 3.3 0 0 1 -1.4.4 3.2 3.2 0 0 1 -1.6-.4v-2.3l.8.3a.8.8 0 0 0 .8-.4 3.9 3.9 0 0 0 .4-1.4z"/></g></svg>