<svg>
  <symbol id="nav-icon" viewBox="0 0 114 114">
    <circle cx="57" cy="57" r="57" fill="#edd5c8"/>
    <path fill="#cc6d55" d="M57.6 62.3H30.9c-4.5 0-8.2-1.6-8.3-6.5s3.7-6.5 8.1-6.5h54.1c4.5 0 8.3 1.6 8.3 6.5s-3.6 6.6-8.1 6.6z"/>
    <path fill="#cb6c54" d="M58 80.5H30.6c-4.1 0-7.8-1.1-8-5.7s3.6-6.4 8-6.4h54.8c4.3 0 7.7 1.5 7.7 6.1s-3.4 6-7.7 6zm-.1-37.4c-9.2 0-18.3-.1-27.5 0-4.4.1-7.6-1.6-7.7-6.1s3.5-6 7.6-6c18.4.1 36.7.1 55 0 4.3 0 7.7 1.3 7.7 6s-3.3 6.2-7.6 6.1c-9.2-.1-18.4 0-27.5 0z"/>
  </symbol>
</svg>
