<svg xmlns="http://www.w3.org/2000/svg" width="336" height="336" viewBox="0 0 250 250"><path fill="#fff" d="M216.8 10.3H33.2a23 23 0 0 0-22.9 22.9v183.6a23 23 0 0 0 22.9 22.9h183.6a23 23 0 0 0 22.9-22.9V33.2a23 23 0 0 0-22.9-22.9zM190.4 94c-1.2 52.8-34.4 89.5-84.9 91.8-20.6 1.1-35.6-5.8-49.3-13.8 14.9 2.3 34.4-3.4 44.7-12.6a31.1 31.1 0 0 1-28.7-21.8 45 45 0 0 0 12.7 0c-13.8-4.6-23-12.6-24.1-31a22.4 22.4 0 0 0 12.6 3.5c-10.3-5.7-17.2-27.5-9.2-41.3 14.9 16.1 33.3 29.8 63.1 32.1-8-32.1 35.6-49.3 52.7-27.5 8.1-1.2 13.8-4.6 19.5-6.9a31.6 31.6 0 0 1-12.6 17.2 63.3 63.3 0 0 0 16.1-4.6c-1.2 5.8-6.9 10.3-12.6 14.9z"/></svg>